<?xml version="1.0" encoding="UTF-8"?>
<svg width="680px" height="80px" viewBox="0 0 680 80" version="1.1" xmlns="http://www.w3.org/2000/svg" xmlns:xlink="http://www.w3.org/1999/xlink">
    <!-- Generator: Sketch 50 (54983) - http://www.bohemiancoding.com/sketch -->
    <title>Deals &amp; Sales Copy</title>
    <desc>Created with Sketch.</desc>
    <defs></defs>
    <g id="Deals-&amp;-Sales-Copy" stroke="none" stroke-width="1" fill="none" fill-rule="evenodd">
        <rect id="Rectangle" fill="#F2F2F2" x="-22" y="-34" width="1382" height="161"></rect>
        <g id="Group-4" transform="translate(37.000000, 23.000000)">
            <g id="Group-2" transform="translate(0.000000, 3.000000)">
                <g id="Group">
                    <path d="M4.74,20.12 C4.74,20.6566694 4.85083223,21.1174981 5.0725,21.5025 C5.29416778,21.8875019 5.57999825,22.2024988 5.93,22.4475 C6.28000175,22.6925012 6.68249773,22.8733328 7.1375,22.99 C7.59250228,23.1066673 8.06499755,23.165 8.555,23.165 C8.90500175,23.165 9.27249808,23.1241671 9.6575,23.0425 C10.0425019,22.9608329 10.3924984,22.8325009 10.7075,22.6575 C11.0225016,22.4824991 11.284999,22.2491681 11.495,21.9575 C11.7050011,21.6658319 11.81,21.2983356 11.81,20.855 C11.81,20.1083296 11.3141716,19.5483352 10.3225,19.175 C9.33082838,18.8016648 7.9483422,18.4283352 6.175,18.055 C5.45166305,17.8916659 4.74583678,17.6991678 4.0575,17.4775 C3.36916323,17.2558322 2.75666935,16.9641685 2.22,16.6025 C1.68333065,16.2408315 1.2516683,15.7858361 0.925,15.2375 C0.5983317,14.6891639 0.435,14.0183373 0.435,13.225 C0.435,12.0583275 0.662497725,11.1016704 1.1175,10.355 C1.57250228,9.6083296 2.1733296,9.01916883 2.92,8.5875 C3.6666704,8.15583118 4.506662,7.85250088 5.44,7.6775 C6.373338,7.50249913 7.3299951,7.415 8.31,7.415 C9.2900049,7.415 10.2408287,7.5083324 11.1625,7.695 C12.0841713,7.8816676 12.9066631,8.19666445 13.63,8.64 C14.353337,9.08333555 14.9541643,9.67249633 15.4325,10.4075 C15.9108357,11.1425037 16.1966662,12.0699944 16.29,13.19 L11.565,13.19 C11.4949997,12.2333286 11.1333366,11.585835 10.48,11.2475 C9.8266634,10.909165 9.0566711,10.74 8.17,10.74 C7.8899986,10.74 7.5866683,10.7574998 7.26,10.7925 C6.9333317,10.8275002 6.63583468,10.9033328 6.3675,11.02 C6.09916533,11.1366673 5.8716676,11.3058322 5.685,11.5275 C5.4983324,11.7491678 5.405,12.0466648 5.405,12.42 C5.405,12.8633356 5.5683317,13.2249986 5.895,13.505 C6.2216683,13.7850014 6.64749738,14.0124991 7.1725,14.1875 C7.69750263,14.3625009 8.29832995,14.5199993 8.975,14.66 C9.65167005,14.8000007 10.3399965,14.9516659 11.04,15.115 C11.763337,15.2783342 12.4691632,15.4766655 13.1575,15.71 C13.8458368,15.9433345 14.4583307,16.2524981 14.995,16.6375 C15.5316694,17.0225019 15.9633317,17.5008305 16.29,18.0725 C16.6166683,18.6441695 16.78,19.3499958 16.78,20.19 C16.78,21.380006 16.5408357,22.377496 16.0625,23.1825 C15.5841643,23.987504 14.9600039,24.6349976 14.19,25.125 C13.4199962,25.6150025 12.5391716,25.9591657 11.5475,26.1575 C10.5558284,26.3558343 9.5466718,26.455 8.52,26.455 C7.46999475,26.455 6.44333835,26.3500011 5.44,26.14 C4.43666165,25.929999 3.54417058,25.5800025 2.7625,25.09 C1.98082943,24.5999976 1.33916918,23.952504 0.8375,23.1475 C0.335830825,22.342496 0.0616669,21.3333394 0.015,20.12 L4.74,20.12 Z M19.475,13.47 C19.5450004,12.3033275 19.8366641,11.3350039 20.35,10.565 C20.8633359,9.79499615 21.5166627,9.176669 22.31,8.71 C23.1033373,8.243331 23.9958284,7.91083433 24.9875,7.7125 C25.9791716,7.51416568 26.9766617,7.415 27.98,7.415 C28.8900046,7.415 29.811662,7.47916603 30.745,7.6075 C31.678338,7.73583398 32.5299962,7.9866648 33.3,8.36 C34.0700039,8.7333352 34.6999976,9.25249668 35.19,9.9175 C35.6800025,10.5825033 35.925,11.4633279 35.925,12.56 L35.925,21.975 C35.925,22.7916708 35.9716662,23.5733296 36.065,24.32 C36.1583338,25.0666704 36.3216655,25.6266648 36.555,26 L31.515,26 C31.4216662,25.7199986 31.3458336,25.4341681 31.2875,25.1425 C31.2291664,24.8508319 31.1883335,24.5533349 31.165,24.25 C30.3716627,25.0666708 29.4383387,25.6383317 28.365,25.965 C27.2916613,26.2916683 26.1950056,26.455 25.075,26.455 C24.2116624,26.455 23.4066704,26.3500011 22.66,26.14 C21.9133296,25.929999 21.2600028,25.6033356 20.7,25.16 C20.1399972,24.7166645 19.7025016,24.1566701 19.3875,23.48 C19.0724984,22.80333 18.915,21.998338 18.915,21.065 C18.915,20.0383282 19.0958315,19.1925033 19.4575,18.5275 C19.8191685,17.8624967 20.2858305,17.3316687 20.8575,16.935 C21.4291695,16.5383314 22.0824963,16.2408343 22.8175,16.0425 C23.5525037,15.8441657 24.2933296,15.6866673 25.04,15.57 C25.7866704,15.4533328 26.5216631,15.3600004 27.245,15.29 C27.968337,15.2199997 28.6099972,15.1150007 29.17,14.975 C29.7300028,14.8349993 30.1733317,14.6308347 30.5,14.3625 C30.8266683,14.0941653 30.9783335,13.7033359 30.955,13.19 C30.955,12.6533307 30.8675009,12.2275016 30.6925,11.9125 C30.5174991,11.5974984 30.2841681,11.3525009 29.9925,11.1775 C29.7008319,11.0024991 29.3625019,10.8858336 28.9775,10.8275 C28.5924981,10.7691664 28.1783356,10.74 27.735,10.74 C26.7549951,10.74 25.9850028,10.9499979 25.425,11.37 C24.8649972,11.7900021 24.5383338,12.4899951 24.445,13.47 L19.475,13.47 Z M30.955,17.145 C30.744999,17.3316676 30.4825016,17.4774995 30.1675,17.5825 C29.8524984,17.6875005 29.5141685,17.7749997 29.1525,17.845 C28.7908315,17.9150004 28.4116687,17.9733331 28.015,18.02 C27.6183314,18.0666669 27.2216687,18.1249997 26.825,18.195 C26.4516648,18.2650004 26.0841685,18.3583328 25.7225,18.475 C25.3608315,18.5916673 25.0458347,18.7491657 24.7775,18.9475 C24.5091653,19.1458343 24.2933342,19.3966652 24.13,19.7 C23.9666659,20.0033349 23.885,20.388331 23.885,20.855 C23.885,21.2983356 23.9666659,21.6716652 24.13,21.975 C24.2933342,22.2783349 24.5149986,22.5174991 24.795,22.6925 C25.0750014,22.8675009 25.4016648,22.9899997 25.775,23.06 C26.1483352,23.1300004 26.5333314,23.165 26.93,23.165 C27.9100049,23.165 28.6683307,23.0016683 29.205,22.675 C29.7416694,22.3483317 30.1383321,21.9575023 30.395,21.5025 C30.651668,21.0474977 30.8091664,20.586669 30.8675,20.12 C30.9258336,19.653331 30.955,19.2800014 30.955,19 L30.955,17.145 Z M39.915,1.01 L44.885,1.01 L44.885,26 L39.915,26 L39.915,1.01 Z M60.985,15.01 C60.7516655,13.7499937 60.337503,12.7933366 59.7425,12.14 C59.147497,11.4866634 58.2433394,11.16 57.03,11.16 C56.2366627,11.16 55.5775026,11.2941653 55.0525,11.5625 C54.5274974,11.8308347 54.1075016,12.1633314 53.7925,12.56 C53.4774984,12.9566687 53.255834,13.3766645 53.1275,13.82 C52.999166,14.2633356 52.9233335,14.6599983 52.9,15.01 L60.985,15.01 Z M52.9,18.16 C52.9700004,19.7700081 53.3783296,20.9366631 54.125,21.66 C54.8716704,22.383337 55.944993,22.745 57.345,22.745 C58.3483384,22.745 59.2116631,22.4941692 59.935,21.9925 C60.658337,21.4908308 61.1016659,20.9600028 61.265,20.4 L65.64,20.4 C64.9399965,22.5700109 63.8666739,24.121662 62.42,25.055 C60.9733261,25.988338 59.2233436,26.455 57.17,26.455 C55.7466596,26.455 54.4633391,26.2275023 53.32,25.7725 C52.176661,25.3174977 51.2083373,24.6700042 50.415,23.83 C49.6216627,22.9899958 49.0091688,21.9866725 48.5775,20.82 C48.1458312,19.6533275 47.93,18.370007 47.93,16.97 C47.93,15.6166599 48.1516645,14.3566725 48.595,13.19 C49.0383356,12.0233275 49.6683293,11.0141709 50.485,10.1625 C51.3016708,9.31082908 52.2758277,8.64000245 53.4075,8.15 C54.5391723,7.65999755 55.7933265,7.415 57.17,7.415 C58.7100077,7.415 60.051661,7.71249703 61.195,8.3075 C62.3383391,8.90250298 63.2774963,9.70166165 64.0125,10.705 C64.7475037,11.7083384 65.2783317,12.8516603 65.605,14.135 C65.9316683,15.4183398 66.0483338,16.759993 65.955,18.16 L52.9,18.16 Z M72.745,20.12 C72.745,20.6566694 72.8558322,21.1174981 73.0775,21.5025 C73.2991678,21.8875019 73.5849983,22.2024988 73.935,22.4475 C74.2850018,22.6925012 74.6874977,22.8733328 75.1425,22.99 C75.5975023,23.1066673 76.0699976,23.165 76.56,23.165 C76.9100018,23.165 77.2774981,23.1241671 77.6625,23.0425 C78.0475019,22.9608329 78.3974984,22.8325009 78.7125,22.6575 C79.0275016,22.4824991 79.289999,22.2491681 79.5,21.9575 C79.7100011,21.6658319 79.815,21.2983356 79.815,20.855 C79.815,20.1083296 79.3191716,19.5483352 78.3275,19.175 C77.3358284,18.8016648 75.9533422,18.4283352 74.18,18.055 C73.4566631,17.8916659 72.7508368,17.6991678 72.0625,17.4775 C71.3741632,17.2558322 70.7616694,16.9641685 70.225,16.6025 C69.6883307,16.2408315 69.2566683,15.7858361 68.93,15.2375 C68.6033317,14.6891639 68.44,14.0183373 68.44,13.225 C68.44,12.0583275 68.6674977,11.1016704 69.1225,10.355 C69.5775023,9.6083296 70.1783296,9.01916883 70.925,8.5875 C71.6716704,8.15583118 72.511662,7.85250088 73.445,7.6775 C74.378338,7.50249913 75.3349951,7.415 76.315,7.415 C77.2950049,7.415 78.2458287,7.5083324 79.1675,7.695 C80.0891713,7.8816676 80.9116631,8.19666445 81.635,8.64 C82.358337,9.08333555 82.9591643,9.67249633 83.4375,10.4075 C83.9158357,11.1425037 84.2016662,12.0699944 84.295,13.19 L79.57,13.19 C79.4999997,12.2333286 79.1383366,11.585835 78.485,11.2475 C77.8316634,10.909165 77.0616711,10.74 76.175,10.74 C75.8949986,10.74 75.5916683,10.7574998 75.265,10.7925 C74.9383317,10.8275002 74.6408347,10.9033328 74.3725,11.02 C74.1041653,11.1366673 73.8766676,11.3058322 73.69,11.5275 C73.5033324,11.7491678 73.41,12.0466648 73.41,12.42 C73.41,12.8633356 73.5733317,13.2249986 73.9,13.505 C74.2266683,13.7850014 74.6524974,14.0124991 75.1775,14.1875 C75.7025026,14.3625009 76.30333,14.5199993 76.98,14.66 C77.6566701,14.8000007 78.3449965,14.9516659 79.045,15.115 C79.768337,15.2783342 80.4741632,15.4766655 81.1625,15.71 C81.8508368,15.9433345 82.4633307,16.2524981 83,16.6375 C83.5366694,17.0225019 83.9683317,17.5008305 84.295,18.0725 C84.6216683,18.6441695 84.785,19.3499958 84.785,20.19 C84.785,21.380006 84.5458357,22.377496 84.0675,23.1825 C83.5891643,23.987504 82.9650039,24.6349976 82.195,25.125 C81.4249962,25.6150025 80.5441716,25.9591657 79.5525,26.1575 C78.5608284,26.3558343 77.5516718,26.455 76.525,26.455 C75.4749948,26.455 74.4483384,26.3500011 73.445,26.14 C72.4416617,25.929999 71.5491706,25.5800025 70.7675,25.09 C69.9858294,24.5999976 69.3441692,23.952504 68.8425,23.1475 C68.3408308,22.342496 68.0666669,21.3333394 68.02,20.12 L72.745,20.12 Z M111.77,23.515 C110.766662,24.4950049 109.699172,25.2299976 108.5675,25.72 C107.435828,26.2100025 106.15834,26.455 104.735,26.455 C103.614994,26.455 102.559172,26.2916683 101.5675,25.965 C100.575828,25.6383317 99.718337,25.1541699 98.995,24.5125 C98.2716631,23.8708301 97.7000021,23.0891713 97.28,22.1675 C96.8599979,21.2458287 96.65,20.190006 96.65,19 C96.65,18.1133289 96.8016652,17.3025037 97.105,16.5675 C97.4083349,15.8324963 97.8224974,15.167503 98.3475,14.5725 C98.8725026,13.977497 99.47333,13.446669 100.15,12.98 C100.82667,12.513331 101.526663,12.1050018 102.25,11.755 C101.57333,10.9383293 101.007502,10.1216708 100.5525,9.305 C100.097498,8.48832925 99.87,7.53167215 99.87,6.435 C99.87,5.57166235 100.050832,4.7900035 100.4125,4.09 C100.774168,3.3899965 101.25833,2.78916918 101.865,2.2875 C102.47167,1.78583083 103.165829,1.40083468 103.9475,1.1325 C104.729171,0.864165325 105.539996,0.73 106.38,0.73 C107.336671,0.73 108.229163,0.85833205 109.0575,1.115 C109.885837,1.37166795 110.609164,1.75083083 111.2275,2.2525 C111.845836,2.75416918 112.335832,3.3783296 112.6975,4.125 C113.059168,4.8716704 113.24,5.7349951 113.24,6.715 C113.24,8.18500735 112.814171,9.42166165 111.9625,10.425 C111.110829,11.4283384 110.055006,12.26833 108.795,12.945 L112.015,16.9 C112.271668,16.433331 112.469999,15.9491692 112.61,15.4475 C112.750001,14.9458308 112.855,14.4383359 112.925,13.925 L117.23,13.925 C117.113333,15.0450056 116.856669,16.1299948 116.46,17.18 C116.063331,18.2300053 115.515004,19.1983289 114.815,20.085 L119.89,26 L113.8,26 L111.77,23.515 Z M104.875,14.975 C104.431664,15.1616676 104.000002,15.3833321 103.58,15.64 C103.159998,15.896668 102.786668,16.1999983 102.46,16.55 C102.133332,16.9000018 101.870834,17.2849979 101.6725,17.705 C101.474166,18.1250021 101.375,18.5916641 101.375,19.105 C101.375,19.5483356 101.474166,19.9741646 101.6725,20.3825 C101.870834,20.7908354 102.133332,21.1408319 102.46,21.4325 C102.786668,21.7241681 103.165831,21.9574991 103.5975,22.1325 C104.029169,22.3075009 104.478331,22.395 104.945,22.395 C105.831671,22.395 106.607497,22.1908354 107.2725,21.7825 C107.937503,21.3741646 108.561664,20.8433366 109.145,20.19 L104.875,14.975 Z M108.9,6.435 C108.9,5.7816634 108.672502,5.221669 108.2175,4.755 C107.762498,4.288331 107.23167,4.055 106.625,4.055 C106.01833,4.055 105.493336,4.25916463 105.05,4.6675 C104.606664,5.07583538 104.385,5.6066634 104.385,6.26 C104.385,7.0533373 104.594998,7.7299972 105.015,8.29 C105.435002,8.8500028 105.878331,9.42166375 106.345,10.005 C107.045004,9.56166445 107.645831,9.0833359 108.1475,8.57 C108.649169,8.0566641 108.9,7.34500455 108.9,6.435 Z M143.97,16.9 C143.97,16.1533296 143.900001,15.4358368 143.76,14.7475 C143.619999,14.0591632 143.380835,13.4525026 143.0425,12.9275 C142.704165,12.4024974 142.266669,11.9766683 141.73,11.65 C141.193331,11.3233317 140.516671,11.16 139.7,11.16 C138.883329,11.16 138.195003,11.3233317 137.635,11.65 C137.074997,11.9766683 136.625835,12.4083307 136.2875,12.945 C135.949165,13.4816694 135.704167,14.0941632 135.5525,14.7825 C135.400833,15.4708368 135.325,16.1883296 135.325,16.935 C135.325,17.6350035 135.406666,18.3349965 135.57,19.035 C135.733334,19.7350035 135.995832,20.3591639 136.3575,20.9075 C136.719168,21.4558361 137.174164,21.899165 137.7225,22.2375 C138.270836,22.575835 138.929996,22.745 139.7,22.745 C140.516671,22.745 141.199164,22.5816683 141.7475,22.255 C142.295836,21.9283317 142.733332,21.4908361 143.06,20.9425 C143.386668,20.3941639 143.619999,19.7700035 143.76,19.07 C143.900001,18.3699965 143.97,17.6466704 143.97,16.9 Z M144.04,23.69 L143.97,23.69 C143.386664,24.6700049 142.622505,25.3758312 141.6775,25.8075 C140.732495,26.2391688 139.665006,26.455 138.475,26.455 C137.12166,26.455 135.931672,26.1925026 134.905,25.6675 C133.878328,25.1424974 133.032503,24.4308378 132.3675,23.5325 C131.702497,22.6341622 131.200835,21.6016725 130.8625,20.435 C130.524165,19.2683275 130.355,18.0550063 130.355,16.795 C130.355,15.5816606 130.524165,14.4091723 130.8625,13.2775 C131.200835,12.1458277 131.702497,11.1483377 132.3675,10.285 C133.032503,9.42166235 133.866662,8.72750263 134.87,8.2025 C135.873338,7.67749738 137.039993,7.415 138.37,7.415 C139.443339,7.415 140.464162,7.64249773 141.4325,8.0975 C142.400838,8.55250228 143.164997,9.2233289 143.725,10.11 L143.795,10.11 L143.795,1.01 L148.765,1.01 L148.765,26 L144.04,26 L144.04,23.69 Z M164.69,15.01 C164.456666,13.7499937 164.042503,12.7933366 163.4475,12.14 C162.852497,11.4866634 161.948339,11.16 160.735,11.16 C159.941663,11.16 159.282503,11.2941653 158.7575,11.5625 C158.232497,11.8308347 157.812502,12.1633314 157.4975,12.56 C157.182498,12.9566687 156.960834,13.3766645 156.8325,13.82 C156.704166,14.2633356 156.628333,14.6599983 156.605,15.01 L164.69,15.01 Z M156.605,18.16 C156.675,19.7700081 157.08333,20.9366631 157.83,21.66 C158.57667,22.383337 159.649993,22.745 161.05,22.745 C162.053338,22.745 162.916663,22.4941692 163.64,21.9925 C164.363337,21.4908308 164.806666,20.9600028 164.97,20.4 L169.345,20.4 C168.644997,22.5700109 167.571674,24.121662 166.125,25.055 C164.678326,25.988338 162.928344,26.455 160.875,26.455 C159.45166,26.455 158.168339,26.2275023 157.025,25.7725 C155.881661,25.3174977 154.913337,24.6700042 154.12,23.83 C153.326663,22.9899958 152.714169,21.9866725 152.2825,20.82 C151.850831,19.6533275 151.635,18.370007 151.635,16.97 C151.635,15.6166599 151.856664,14.3566725 152.3,13.19 C152.743336,12.0233275 153.373329,11.0141709 154.19,10.1625 C155.006671,9.31082908 155.980828,8.64000245 157.1125,8.15 C158.244172,7.65999755 159.498326,7.415 160.875,7.415 C162.415008,7.415 163.756661,7.71249703 164.9,8.3075 C166.043339,8.90250298 166.982496,9.70166165 167.7175,10.705 C168.452504,11.7083384 168.983332,12.8516603 169.31,14.135 C169.636668,15.4183398 169.753334,16.759993 169.66,18.16 L156.605,18.16 Z M172.39,13.47 C172.46,12.3033275 172.751664,11.3350039 173.265,10.565 C173.778336,9.79499615 174.431663,9.176669 175.225,8.71 C176.018337,8.243331 176.910828,7.91083433 177.9025,7.7125 C178.894172,7.51416568 179.891662,7.415 180.895,7.415 C181.805005,7.415 182.726662,7.47916603 183.66,7.6075 C184.593338,7.73583398 185.444996,7.9866648 186.215,8.36 C186.985004,8.7333352 187.614998,9.25249668 188.105,9.9175 C188.595002,10.5825033 188.84,11.4633279 188.84,12.56 L188.84,21.975 C188.84,22.7916708 188.886666,23.5733296 188.98,24.32 C189.073334,25.0666704 189.236666,25.6266648 189.47,26 L184.43,26 C184.336666,25.7199986 184.260834,25.4341681 184.2025,25.1425 C184.144166,24.8508319 184.103333,24.5533349 184.08,24.25 C183.286663,25.0666708 182.353339,25.6383317 181.28,25.965 C180.206661,26.2916683 179.110006,26.455 177.99,26.455 C177.126662,26.455 176.32167,26.3500011 175.575,26.14 C174.82833,25.929999 174.175003,25.6033356 173.615,25.16 C173.054997,24.7166645 172.617502,24.1566701 172.3025,23.48 C171.987498,22.80333 171.83,21.998338 171.83,21.065 C171.83,20.0383282 172.010832,19.1925033 172.3725,18.5275 C172.734168,17.8624967 173.20083,17.3316687 173.7725,16.935 C174.34417,16.5383314 174.997496,16.2408343 175.7325,16.0425 C176.467504,15.8441657 177.20833,15.6866673 177.955,15.57 C178.70167,15.4533328 179.436663,15.3600004 180.16,15.29 C180.883337,15.2199997 181.524997,15.1150007 182.085,14.975 C182.645003,14.8349993 183.088332,14.6308347 183.415,14.3625 C183.741668,14.0941653 183.893333,13.7033359 183.87,13.19 C183.87,12.6533307 183.782501,12.2275016 183.6075,11.9125 C183.432499,11.5974984 183.199168,11.3525009 182.9075,11.1775 C182.615832,11.0024991 182.277502,10.8858336 181.8925,10.8275 C181.507498,10.7691664 181.093336,10.74 180.65,10.74 C179.669995,10.74 178.900003,10.9499979 178.34,11.37 C177.779997,11.7900021 177.453334,12.4899951 177.36,13.47 L172.39,13.47 Z M183.87,17.145 C183.659999,17.3316676 183.397502,17.4774995 183.0825,17.5825 C182.767498,17.6875005 182.429168,17.7749997 182.0675,17.845 C181.705832,17.9150004 181.326669,17.9733331 180.93,18.02 C180.533331,18.0666669 180.136669,18.1249997 179.74,18.195 C179.366665,18.2650004 178.999168,18.3583328 178.6375,18.475 C178.275832,18.5916673 177.960835,18.7491657 177.6925,18.9475 C177.424165,19.1458343 177.208334,19.3966652 177.045,19.7 C176.881666,20.0033349 176.8,20.388331 176.8,20.855 C176.8,21.2983356 176.881666,21.6716652 177.045,21.975 C177.208334,22.2783349 177.429999,22.5174991 177.71,22.6925 C177.990001,22.8675009 178.316665,22.9899997 178.69,23.06 C179.063335,23.1300004 179.448331,23.165 179.845,23.165 C180.825005,23.165 181.583331,23.0016683 182.12,22.675 C182.656669,22.3483317 183.053332,21.9575023 183.31,21.5025 C183.566668,21.0474977 183.724166,20.586669 183.7825,20.12 C183.840834,19.653331 183.87,19.2800014 183.87,19 L183.87,17.145 Z M192.83,1.01 L197.8,1.01 L197.8,26 L192.83,26 L192.83,1.01 Z M205.57,20.12 C205.57,20.6566694 205.680832,21.1174981 205.9025,21.5025 C206.124168,21.8875019 206.409998,22.2024988 206.76,22.4475 C207.110002,22.6925012 207.512498,22.8733328 207.9675,22.99 C208.422502,23.1066673 208.894998,23.165 209.385,23.165 C209.735002,23.165 210.102498,23.1241671 210.4875,23.0425 C210.872502,22.9608329 211.222498,22.8325009 211.5375,22.6575 C211.852502,22.4824991 212.114999,22.2491681 212.325,21.9575 C212.535001,21.6658319 212.64,21.2983356 212.64,20.855 C212.64,20.1083296 212.144172,19.5483352 211.1525,19.175 C210.160828,18.8016648 208.778342,18.4283352 207.005,18.055 C206.281663,17.8916659 205.575837,17.6991678 204.8875,17.4775 C204.199163,17.2558322 203.586669,16.9641685 203.05,16.6025 C202.513331,16.2408315 202.081668,15.7858361 201.755,15.2375 C201.428332,14.6891639 201.265,14.0183373 201.265,13.225 C201.265,12.0583275 201.492498,11.1016704 201.9475,10.355 C202.402502,9.6083296 203.00333,9.01916883 203.75,8.5875 C204.49667,8.15583118 205.336662,7.85250088 206.27,7.6775 C207.203338,7.50249913 208.159995,7.415 209.14,7.415 C210.120005,7.415 211.070829,7.5083324 211.9925,7.695 C212.914171,7.8816676 213.736663,8.19666445 214.46,8.64 C215.183337,9.08333555 215.784164,9.67249633 216.2625,10.4075 C216.740836,11.1425037 217.026666,12.0699944 217.12,13.19 L212.395,13.19 C212.325,12.2333286 211.963337,11.585835 211.31,11.2475 C210.656663,10.909165 209.886671,10.74 209,10.74 C208.719999,10.74 208.416668,10.7574998 208.09,10.7925 C207.763332,10.8275002 207.465835,10.9033328 207.1975,11.02 C206.929165,11.1366673 206.701668,11.3058322 206.515,11.5275 C206.328332,11.7491678 206.235,12.0466648 206.235,12.42 C206.235,12.8633356 206.398332,13.2249986 206.725,13.505 C207.051668,13.7850014 207.477497,14.0124991 208.0025,14.1875 C208.527503,14.3625009 209.12833,14.5199993 209.805,14.66 C210.48167,14.8000007 211.169997,14.9516659 211.87,15.115 C212.593337,15.2783342 213.299163,15.4766655 213.9875,15.71 C214.675837,15.9433345 215.288331,16.2524981 215.825,16.6375 C216.361669,17.0225019 216.793332,17.5008305 217.12,18.0725 C217.446668,18.6441695 217.61,19.3499958 217.61,20.19 C217.61,21.380006 217.370836,22.377496 216.8925,23.1825 C216.414164,23.987504 215.790004,24.6349976 215.02,25.125 C214.249996,25.6150025 213.369172,25.9591657 212.3775,26.1575 C211.385828,26.3558343 210.376672,26.455 209.35,26.455 C208.299995,26.455 207.273338,26.3500011 206.27,26.14 C205.266662,25.929999 204.374171,25.5800025 203.5925,25.09 C202.810829,24.5999976 202.169169,23.952504 201.6675,23.1475 C201.165831,22.342496 200.891667,21.3333394 200.845,20.12 L205.57,20.12 Z" id="sales-&amp;-deals" fill="#FF1F2C"></path>
                    <path d="M254.088,23.066 C254.1,23.4020017 254.177999,23.6869988 254.322,23.921 C254.466001,24.1550012 254.654999,24.3409993 254.889,24.479 C255.123001,24.6170007 255.386999,24.7159997 255.681,24.776 C255.975001,24.8360003 256.277998,24.866 256.59,24.866 C256.830001,24.866 257.081999,24.8480002 257.346,24.812 C257.610001,24.7759998 257.852999,24.7100005 258.075,24.614 C258.297001,24.5179995 258.479999,24.3770009 258.624,24.191 C258.768001,24.0049991 258.84,23.7680014 258.84,23.48 C258.84,23.083998 258.690001,22.784001 258.39,22.58 C258.089998,22.375999 257.715002,22.2110006 257.265,22.085 C256.814998,21.9589994 256.326003,21.8450005 255.798,21.743 C255.269997,21.6409995 254.781002,21.4970009 254.331,21.311 C253.880998,21.1249991 253.506001,20.8640017 253.206,20.528 C252.905999,20.1919983 252.756,19.724003 252.756,19.124 C252.756,18.6559977 252.860999,18.2540017 253.071,17.918 C253.281001,17.5819983 253.550998,17.309001 253.881,17.099 C254.211002,16.8889989 254.582998,16.7330005 254.997,16.631 C255.411002,16.5289995 255.821998,16.478 256.23,16.478 C256.758003,16.478 257.243998,16.5229996 257.688,16.613 C258.132002,16.7030005 258.524998,16.8589989 258.867,17.081 C259.209002,17.3030011 259.481999,17.6029981 259.686,17.981 C259.890001,18.3590019 260.01,18.8299972 260.046,19.394 L258.516,19.394 C258.492,19.0939985 258.414001,18.845001 258.282,18.647 C258.149999,18.448999 257.982001,18.2900006 257.778,18.17 C257.573999,18.0499994 257.349001,17.9630003 257.103,17.909 C256.856999,17.8549997 256.608001,17.828 256.356,17.828 C256.127999,17.828 255.897001,17.8459998 255.663,17.882 C255.428999,17.9180002 255.216001,17.9809995 255.024,18.071 C254.831999,18.1610004 254.676001,18.2809993 254.556,18.431 C254.435999,18.5810007 254.376,18.7759988 254.376,19.016 C254.376,19.2800013 254.468999,19.4989991 254.655,19.673 C254.841001,19.8470009 255.077999,19.9909994 255.366,20.105 C255.654001,20.2190006 255.977998,20.3149996 256.338,20.393 C256.698002,20.4710004 257.057998,20.5519996 257.418,20.636 C257.802002,20.7200004 258.176998,20.8219994 258.543,20.942 C258.909002,21.0620006 259.232999,21.220999 259.515,21.419 C259.797001,21.617001 260.024999,21.8659985 260.199,22.166 C260.373001,22.4660015 260.46,22.8379978 260.46,23.282 C260.46,23.8460028 260.343001,24.3139981 260.109,24.686 C259.874999,25.0580019 259.569002,25.3579989 259.191,25.586 C258.812998,25.8140011 258.387002,25.9729996 257.913,26.063 C257.438998,26.1530005 256.968002,26.198 256.5,26.198 C255.983997,26.198 255.492002,26.1440005 255.024,26.036 C254.555998,25.9279995 254.142002,25.7510012 253.782,25.505 C253.421998,25.2589988 253.134001,24.935002 252.918,24.533 C252.701999,24.130998 252.582,23.6420029 252.558,23.066 L254.088,23.066 Z M262.152,13.148 L263.682,13.148 L263.682,18.062 L263.718,18.062 C263.838001,17.7739986 264.005999,17.531001 264.222,17.333 C264.438001,17.134999 264.680999,16.9730006 264.951,16.847 C265.221001,16.7209994 265.502999,16.6280003 265.797,16.568 C266.091001,16.5079997 266.375999,16.478 266.652,16.478 C267.264003,16.478 267.773998,16.5619992 268.182,16.73 C268.590002,16.8980008 268.919999,17.1319985 269.172,17.432 C269.424001,17.7320015 269.600999,18.0889979 269.703,18.503 C269.805001,18.9170021 269.856,19.3759975 269.856,19.88 L269.856,26 L268.326,26 L268.326,19.7 C268.326,19.1239971 268.158002,18.6680017 267.822,18.332 C267.485998,17.9959983 267.024003,17.828 266.436,17.828 C265.967998,17.828 265.563002,17.8999993 265.221,18.044 C264.878998,18.1880007 264.594001,18.3919987 264.366,18.656 C264.137999,18.9200013 263.967001,19.2289982 263.853,19.583 C263.738999,19.9370018 263.682,20.3239979 263.682,20.744 L263.682,26 L262.152,26 L262.152,13.148 Z M273.276,21.356 C273.276,21.9200028 273.350999,22.4209978 273.501,22.859 C273.651001,23.2970022 273.857999,23.6629985 274.122,23.957 C274.386001,24.2510015 274.694998,24.4759992 275.049,24.632 C275.403002,24.7880008 275.777998,24.866 276.174,24.866 C276.570002,24.866 276.944998,24.7880008 277.299,24.632 C277.653002,24.4759992 277.961999,24.2510015 278.226,23.957 C278.490001,23.6629985 278.696999,23.2970022 278.847,22.859 C278.997001,22.4209978 279.072,21.9200028 279.072,21.356 C279.072,20.7919972 278.997001,20.2910022 278.847,19.853 C278.696999,19.4149978 278.490001,19.0460015 278.226,18.746 C277.961999,18.4459985 277.653002,18.2180008 277.299,18.062 C276.944998,17.9059992 276.570002,17.828 276.174,17.828 C275.777998,17.828 275.403002,17.9059992 275.049,18.062 C274.694998,18.2180008 274.386001,18.4459985 274.122,18.746 C273.857999,19.0460015 273.651001,19.4149978 273.501,19.853 C273.350999,20.2910022 273.276,20.7919972 273.276,21.356 Z M271.656,21.356 C271.656,20.6719966 271.751999,20.033003 271.944,19.439 C272.136001,18.844997 272.423998,18.3290022 272.808,17.891 C273.192002,17.4529978 273.665997,17.1080013 274.23,16.856 C274.794003,16.6039987 275.441996,16.478 276.174,16.478 C276.918004,16.478 277.568997,16.6039987 278.127,16.856 C278.685003,17.1080013 279.155998,17.4529978 279.54,17.891 C279.924002,18.3290022 280.211999,18.844997 280.404,19.439 C280.596001,20.033003 280.692,20.6719966 280.692,21.356 C280.692,22.0400034 280.596001,22.6759971 280.404,23.264 C280.211999,23.8520029 279.924002,24.3649978 279.54,24.803 C279.155998,25.2410022 278.685003,25.5829988 278.127,25.829 C277.568997,26.0750012 276.918004,26.198 276.174,26.198 C275.441996,26.198 274.794003,26.0750012 274.23,25.829 C273.665997,25.5829988 273.192002,25.2410022 272.808,24.803 C272.423998,24.3649978 272.136001,23.8520029 271.944,23.264 C271.751999,22.6759971 271.656,22.0400034 271.656,21.356 Z M282.546,16.694 L284.076,16.694 L284.076,17.954 L284.112,17.954 C284.364001,17.4379974 284.759997,17.0630012 285.3,16.829 C285.840003,16.5949988 286.433997,16.478 287.082,16.478 C287.802004,16.478 288.428997,16.6099987 288.963,16.874 C289.497003,17.1380013 289.940998,17.4949977 290.295,17.945 C290.649002,18.3950022 290.915999,18.9139971 291.096,19.502 C291.276001,20.0900029 291.366,20.7139967 291.366,21.374 C291.366,22.0340033 291.279001,22.6579971 291.105,23.246 C290.930999,23.8340029 290.667002,24.3469978 290.313,24.785 C289.958998,25.2230022 289.515003,25.5679987 288.981,25.82 C288.446997,26.0720013 287.826004,26.198 287.118,26.198 C286.889999,26.198 286.635001,26.1740002 286.353,26.126 C286.070999,26.0779998 285.792001,26.0000005 285.516,25.892 C285.239999,25.7839995 284.979001,25.6370009 284.733,25.451 C284.486999,25.2649991 284.280001,25.0340014 284.112,24.758 L284.076,24.758 L284.076,29.546 L282.546,29.546 L282.546,16.694 Z M289.746,21.266 C289.746,20.8339978 289.689001,20.4110021 289.575,19.997 C289.460999,19.5829979 289.287001,19.2140016 289.053,18.89 C288.818999,18.5659984 288.519002,18.308001 288.153,18.116 C287.786998,17.923999 287.358002,17.828 286.866,17.828 C286.349997,17.828 285.912002,17.929999 285.552,18.134 C285.191998,18.338001 284.898001,18.6049983 284.67,18.935 C284.441999,19.2650017 284.277001,19.6399979 284.175,20.06 C284.072999,20.4800021 284.022,20.9059978 284.022,21.338 C284.022,21.7940023 284.075999,22.2349979 284.184,22.661 C284.292001,23.0870021 284.462999,23.4619984 284.697,23.786 C284.931001,24.1100016 285.233998,24.370999 285.606,24.569 C285.978002,24.767001 286.427997,24.866 286.956,24.866 C287.484003,24.866 287.924998,24.764001 288.279,24.56 C288.633002,24.355999 288.917999,24.0860017 289.134,23.75 C289.350001,23.4139983 289.506,23.0300022 289.602,22.598 C289.698,22.1659978 289.746,21.7220023 289.746,21.266 Z M293.508,24.002 L295.506,24.002 L295.506,26 L293.508,26 L293.508,24.002 Z M304.11,23.066 C304.122,23.4020017 304.199999,23.6869988 304.344,23.921 C304.488001,24.1550012 304.676999,24.3409993 304.911,24.479 C305.145001,24.6170007 305.408999,24.7159997 305.703,24.776 C305.997001,24.8360003 306.299998,24.866 306.612,24.866 C306.852001,24.866 307.103999,24.8480002 307.368,24.812 C307.632001,24.7759998 307.874999,24.7100005 308.097,24.614 C308.319001,24.5179995 308.501999,24.3770009 308.646,24.191 C308.790001,24.0049991 308.862,23.7680014 308.862,23.48 C308.862,23.083998 308.712001,22.784001 308.412,22.58 C308.111999,22.375999 307.737002,22.2110006 307.287,22.085 C306.836998,21.9589994 306.348003,21.8450005 305.82,21.743 C305.291997,21.6409995 304.803002,21.4970009 304.353,21.311 C303.902998,21.1249991 303.528002,20.8640017 303.228,20.528 C302.927999,20.1919983 302.778,19.724003 302.778,19.124 C302.778,18.6559977 302.882999,18.2540017 303.093,17.918 C303.303001,17.5819983 303.572998,17.309001 303.903,17.099 C304.233002,16.8889989 304.604998,16.7330005 305.019,16.631 C305.433002,16.5289995 305.843998,16.478 306.252,16.478 C306.780003,16.478 307.265998,16.5229996 307.71,16.613 C308.154002,16.7030005 308.546998,16.8589989 308.889,17.081 C309.231002,17.3030011 309.503999,17.6029981 309.708,17.981 C309.912001,18.3590019 310.032,18.8299972 310.068,19.394 L308.538,19.394 C308.514,19.0939985 308.436001,18.845001 308.304,18.647 C308.171999,18.448999 308.004001,18.2900006 307.8,18.17 C307.595999,18.0499994 307.371001,17.9630003 307.125,17.909 C306.878999,17.8549997 306.630001,17.828 306.378,17.828 C306.149999,17.828 305.919001,17.8459998 305.685,17.882 C305.450999,17.9180002 305.238001,17.9809995 305.046,18.071 C304.853999,18.1610004 304.698001,18.2809993 304.578,18.431 C304.457999,18.5810007 304.398,18.7759988 304.398,19.016 C304.398,19.2800013 304.490999,19.4989991 304.677,19.673 C304.863001,19.8470009 305.099999,19.9909994 305.388,20.105 C305.676001,20.2190006 305.999998,20.3149996 306.36,20.393 C306.720002,20.4710004 307.079998,20.5519996 307.44,20.636 C307.824002,20.7200004 308.198998,20.8219994 308.565,20.942 C308.931002,21.0620006 309.254999,21.220999 309.537,21.419 C309.819001,21.617001 310.046999,21.8659985 310.221,22.166 C310.395001,22.4660015 310.482,22.8379978 310.482,23.282 C310.482,23.8460028 310.365001,24.3139981 310.131,24.686 C309.896999,25.0580019 309.591002,25.3579989 309.213,25.586 C308.834998,25.8140011 308.409002,25.9729996 307.935,26.063 C307.460998,26.1530005 306.990002,26.198 306.522,26.198 C306.005997,26.198 305.514002,26.1440005 305.046,26.036 C304.577998,25.9279995 304.164002,25.7510012 303.804,25.505 C303.443998,25.2589988 303.156001,24.935002 302.94,24.533 C302.723999,24.130998 302.604,23.6420029 302.58,23.066 L304.11,23.066 Z M320.418,25.964 C320.153999,26.1200008 319.788002,26.198 319.32,26.198 C318.923998,26.198 318.609001,26.0870011 318.375,25.865 C318.140999,25.6429989 318.024,25.2800025 318.024,24.776 C317.603998,25.2800025 317.115003,25.6429989 316.557,25.865 C315.998997,26.0870011 315.396003,26.198 314.748,26.198 C314.327998,26.198 313.929002,26.1500005 313.551,26.054 C313.172998,25.9579995 312.846001,25.808001 312.57,25.604 C312.293999,25.399999 312.075001,25.1330017 311.913,24.803 C311.750999,24.4729984 311.67,24.0740023 311.67,23.606 C311.67,23.0779974 311.759999,22.6460017 311.94,22.31 C312.120001,21.9739983 312.356999,21.701001 312.651,21.491 C312.945001,21.2809989 313.280998,21.1220005 313.659,21.014 C314.037002,20.9059995 314.423998,20.8160004 314.82,20.744 C315.240002,20.6599996 315.638998,20.5970002 316.017,20.555 C316.395002,20.5129998 316.727999,20.4530004 317.016,20.375 C317.304001,20.2969996 317.531999,20.1830007 317.7,20.033 C317.868001,19.8829992 317.952,19.6640014 317.952,19.376 C317.952,19.0399983 317.889001,18.770001 317.763,18.566 C317.636999,18.361999 317.475001,18.2060005 317.277,18.098 C317.078999,17.9899995 316.857001,17.9180002 316.611,17.882 C316.364999,17.8459998 316.122001,17.828 315.882,17.828 C315.233997,17.828 314.694002,17.9509988 314.262,18.197 C313.829998,18.4430012 313.596,18.9079966 313.56,19.592 L312.03,19.592 C312.054,19.0159971 312.173999,18.530002 312.39,18.134 C312.606001,17.737998 312.893998,17.4170012 313.254,17.171 C313.614002,16.9249988 314.024998,16.7480005 314.487,16.64 C314.949002,16.5319995 315.443997,16.478 315.972,16.478 C316.392002,16.478 316.808998,16.5079997 317.223,16.568 C317.637002,16.6280003 318.011998,16.7509991 318.348,16.937 C318.684002,17.1230009 318.953999,17.3839983 319.158,17.72 C319.362001,18.0560017 319.464,18.4939973 319.464,19.034 L319.464,23.822 C319.464,24.1820018 319.485,24.4459992 319.527,24.614 C319.569,24.7820008 319.709999,24.866 319.95,24.866 C320.082001,24.866 320.237999,24.8360003 320.418,24.776 L320.418,25.964 Z M317.934,21.194 C317.741999,21.3380007 317.490002,21.4429997 317.178,21.509 C316.865998,21.5750003 316.539002,21.6289998 316.197,21.671 C315.854998,21.7130002 315.510002,21.7609997 315.162,21.815 C314.813998,21.8690003 314.502001,21.9559994 314.226,22.076 C313.949999,22.1960006 313.725001,22.3669989 313.551,22.589 C313.376999,22.8110011 313.29,23.1139981 313.29,23.498 C313.29,23.7500013 313.340999,23.9629991 313.443,24.137 C313.545001,24.3110009 313.676999,24.4519995 313.839,24.56 C314.001001,24.6680005 314.189999,24.7459998 314.406,24.794 C314.622001,24.8420002 314.849999,24.866 315.09,24.866 C315.594003,24.866 316.025998,24.7970007 316.386,24.659 C316.746002,24.5209993 317.039999,24.347001 317.268,24.137 C317.496001,23.9269989 317.663999,23.6990012 317.772,23.453 C317.880001,23.2069988 317.934,22.9760011 317.934,22.76 L317.934,21.194 Z M326.034,26 L324.396,26 L320.94,16.694 L322.65,16.694 L325.26,24.452 L325.296,24.452 L327.834,16.694 L329.436,16.694 L326.034,26 Z M337.302,20.456 C337.278,20.0959982 337.197001,19.7540016 337.059,19.43 C336.920999,19.1059984 336.735001,18.8270012 336.501,18.593 C336.266999,18.3589988 335.991002,18.1730007 335.673,18.035 C335.354998,17.8969993 335.004002,17.828 334.62,17.828 C334.223998,17.828 333.867002,17.8969993 333.549,18.035 C333.230998,18.1730007 332.958001,18.3619988 332.73,18.602 C332.501999,18.8420012 332.322001,19.1209984 332.19,19.439 C332.057999,19.7570016 331.98,20.0959982 331.956,20.456 L337.302,20.456 Z M338.778,23.048 C338.573999,24.0920052 338.124003,24.8779974 337.428,25.406 C336.731997,25.9340026 335.856005,26.198 334.8,26.198 C334.055996,26.198 333.411003,26.0780012 332.865,25.838 C332.318997,25.5979988 331.860002,25.2620022 331.488,24.83 C331.115998,24.3979978 330.837001,23.882003 330.651,23.282 C330.464999,22.681997 330.36,22.0280035 330.336,21.32 C330.336,20.6119965 330.443999,19.9640029 330.66,19.376 C330.876001,18.7879971 331.178998,18.2780022 331.569,17.846 C331.959002,17.4139978 332.420997,17.0780012 332.955,16.838 C333.489003,16.5979988 334.073997,16.478 334.71,16.478 C335.538004,16.478 336.224997,16.6489983 336.771,16.991 C337.317003,17.3330017 337.754998,17.7679974 338.085,18.296 C338.415002,18.8240026 338.642999,19.3999969 338.769,20.024 C338.895001,20.6480031 338.946,21.2419972 338.922,21.806 L331.956,21.806 C331.944,22.214002 331.991999,22.6009982 332.1,22.967 C332.208001,23.3330018 332.381999,23.6569986 332.622,23.939 C332.862001,24.2210014 333.167998,24.4459992 333.54,24.614 C333.912002,24.7820008 334.349997,24.866 334.854,24.866 C335.502003,24.866 336.032998,24.7160015 336.447,24.416 C336.861002,24.1159985 337.133999,23.6600031 337.266,23.048 L338.778,23.048 Z M340.848,24.002 L342.846,24.002 L342.846,26 L340.848,26 L340.848,24.002 Z M350.604,13.148 L352.134,13.148 L352.134,26 L350.604,26 L350.604,13.148 Z M355.626,21.356 C355.626,21.9200028 355.700999,22.4209978 355.851,22.859 C356.001001,23.2970022 356.207999,23.6629985 356.472,23.957 C356.736001,24.2510015 357.044998,24.4759992 357.399,24.632 C357.753002,24.7880008 358.127998,24.866 358.524,24.866 C358.920002,24.866 359.294998,24.7880008 359.649,24.632 C360.003002,24.4759992 360.311999,24.2510015 360.576,23.957 C360.840001,23.6629985 361.046999,23.2970022 361.197,22.859 C361.347001,22.4209978 361.422,21.9200028 361.422,21.356 C361.422,20.7919972 361.347001,20.2910022 361.197,19.853 C361.046999,19.4149978 360.840001,19.0460015 360.576,18.746 C360.311999,18.4459985 360.003002,18.2180008 359.649,18.062 C359.294998,17.9059992 358.920002,17.828 358.524,17.828 C358.127998,17.828 357.753002,17.9059992 357.399,18.062 C357.044998,18.2180008 356.736001,18.4459985 356.472,18.746 C356.207999,19.0460015 356.001001,19.4149978 355.851,19.853 C355.700999,20.2910022 355.626,20.7919972 355.626,21.356 Z M354.006,21.356 C354.006,20.6719966 354.101999,20.033003 354.294,19.439 C354.486001,18.844997 354.773998,18.3290022 355.158,17.891 C355.542002,17.4529978 356.015997,17.1080013 356.58,16.856 C357.144003,16.6039987 357.791996,16.478 358.524,16.478 C359.268004,16.478 359.918997,16.6039987 360.477,16.856 C361.035003,17.1080013 361.505998,17.4529978 361.89,17.891 C362.274002,18.3290022 362.561999,18.844997 362.754,19.439 C362.946001,20.033003 363.042,20.6719966 363.042,21.356 C363.042,22.0400034 362.946001,22.6759971 362.754,23.264 C362.561999,23.8520029 362.274002,24.3649978 361.89,24.803 C361.505998,25.2410022 361.035003,25.5829988 360.477,25.829 C359.918997,26.0750012 359.268004,26.198 358.524,26.198 C357.791996,26.198 357.144003,26.0750012 356.58,25.829 C356.015997,25.5829988 355.542002,25.2410022 355.158,24.803 C354.773998,24.3649978 354.486001,23.8520029 354.294,23.264 C354.101999,22.6759971 354.006,22.0400034 354.006,21.356 Z M369.036,26 L367.398,26 L363.942,16.694 L365.652,16.694 L368.262,24.452 L368.298,24.452 L370.836,16.694 L372.438,16.694 L369.036,26 Z M380.304,20.456 C380.28,20.0959982 380.199001,19.7540016 380.061,19.43 C379.922999,19.1059984 379.737001,18.8270012 379.503,18.593 C379.268999,18.3589988 378.993002,18.1730007 378.675,18.035 C378.356998,17.8969993 378.006002,17.828 377.622,17.828 C377.225998,17.828 376.869002,17.8969993 376.551,18.035 C376.232998,18.1730007 375.960001,18.3619988 375.732,18.602 C375.503999,18.8420012 375.324001,19.1209984 375.192,19.439 C375.059999,19.7570016 374.982,20.0959982 374.958,20.456 L380.304,20.456 Z M381.78,23.048 C381.575999,24.0920052 381.126003,24.8779974 380.43,25.406 C379.733997,25.9340026 378.858005,26.198 377.802,26.198 C377.057996,26.198 376.413003,26.0780012 375.867,25.838 C375.320997,25.5979988 374.862002,25.2620022 374.49,24.83 C374.117998,24.3979978 373.839001,23.882003 373.653,23.282 C373.466999,22.681997 373.362,22.0280035 373.338,21.32 C373.338,20.6119965 373.445999,19.9640029 373.662,19.376 C373.878001,18.7879971 374.180998,18.2780022 374.571,17.846 C374.961002,17.4139978 375.422997,17.0780012 375.957,16.838 C376.491003,16.5979988 377.075997,16.478 377.712,16.478 C378.540004,16.478 379.226997,16.6489983 379.773,16.991 C380.319003,17.3330017 380.756998,17.7679974 381.087,18.296 C381.417002,18.8240026 381.644999,19.3999969 381.771,20.024 C381.897001,20.6480031 381.948,21.2419972 381.924,21.806 L374.958,21.806 C374.946,22.214002 374.993999,22.6009982 375.102,22.967 C375.210001,23.3330018 375.383999,23.6569986 375.624,23.939 C375.864001,24.2210014 376.169998,24.4459992 376.542,24.614 C376.914002,24.7820008 377.351997,24.866 377.856,24.866 C378.504003,24.866 379.034998,24.7160015 379.449,24.416 C379.863002,24.1159985 380.135999,23.6600031 380.268,23.048 L381.78,23.048 Z M383.85,24.002 L385.848,24.002 L385.848,26 L383.85,26 L383.85,24.002 Z M394.218,16.694 L395.658,16.694 L395.208,18.692 L395.244,18.692 C395.604002,18.0559968 396.062997,17.5280021 396.621,17.108 C397.179003,16.6879979 397.847996,16.478 398.628,16.478 C398.724,16.478 398.814,16.4720001 398.898,16.46 C398.982,16.4479999 399.072,16.4539999 399.168,16.478 L398.808,18.116 C398.76,18.1039999 398.682001,18.098 398.574,18.098 L398.358,18.098 C398.165999,18.098 398.010001,18.101 397.89,18.107 C397.769999,18.113 397.620001,18.1399998 397.44,18.188 C397.019998,18.2960005 396.645002,18.4819987 396.315,18.746 C395.984998,19.0100013 395.700001,19.3279981 395.46,19.7 C395.255999,20.0000015 395.094001,20.350998 394.974,20.753 C394.853999,21.155002 394.758,21.5299983 394.686,21.878 L393.804,26 L392.292,26 L394.218,16.694 Z M399.798,21.806 C399.762,22.0700013 399.744,22.3399986 399.744,22.616 C399.744,22.9760018 399.809999,23.2969986 399.942,23.579 C400.074001,23.8610014 400.253999,24.0949991 400.482,24.281 C400.710001,24.4670009 400.967999,24.6109995 401.256,24.713 C401.544001,24.8150005 401.843998,24.866 402.156,24.866 C402.840003,24.866 403.403998,24.7130015 403.848,24.407 C404.292002,24.1009985 404.621999,23.6600029 404.838,23.084 L406.368,23.084 C406.247999,23.6000026 406.056001,24.052998 405.792,24.443 C405.527999,24.8330019 405.210002,25.1569987 404.838,25.415 C404.465998,25.6730013 404.052002,25.8679993 403.596,26 C403.139998,26.1320007 402.660003,26.198 402.156,26.198 C401.387996,26.198 400.749003,26.0810012 400.239,25.847 C399.728997,25.6129988 399.324001,25.3130018 399.024,24.947 C398.723998,24.5809982 398.514001,24.1790022 398.394,23.741 C398.273999,23.3029978 398.214,22.880002 398.214,22.472 C398.214,21.5839956 398.342999,20.7710037 398.601,20.033 C398.859001,19.2949963 399.206998,18.6620026 399.645,18.134 C400.083002,17.6059974 400.592997,17.1980014 401.175,16.91 C401.757003,16.6219986 402.365997,16.478 403.002,16.478 C404.370007,16.478 405.368997,16.8379964 405.999,17.558 C406.629003,18.2780036 406.944,19.2919935 406.944,20.6 C406.944,20.8400012 406.926,21.0679989 406.89,21.284 C406.854,21.5000011 406.824,21.6739993 406.8,21.806 L399.798,21.806 Z M405.414,20.456 C405.438,20.1319984 405.417,19.8110016 405.351,19.493 C405.285,19.1749984 405.165001,18.8930012 404.991,18.647 C404.816999,18.4009988 404.586001,18.2030007 404.298,18.053 C404.009999,17.9029993 403.656002,17.828 403.236,17.828 C402.791998,17.828 402.393002,17.8969993 402.039,18.035 C401.684998,18.1730007 401.376001,18.3619988 401.112,18.602 C400.847999,18.8420012 400.626001,19.1209984 400.446,19.439 C400.265999,19.7570016 400.122001,20.0959982 400.014,20.456 L405.414,20.456 Z M409.536,16.694 L410.976,16.694 L410.652,18.026 L410.688,18.026 C411.144002,17.425997 411.614998,17.0180011 412.101,16.802 C412.587002,16.5859989 413.141997,16.478 413.766,16.478 C414.366003,16.478 414.890998,16.5709991 415.341,16.757 C415.791002,16.9430009 416.171998,17.2039983 416.484,17.54 C416.796002,17.8760017 417.029999,18.2779977 417.186,18.746 C417.342001,19.2140023 417.42,19.7299972 417.42,20.294 C417.42,21.0020035 417.303001,21.7069965 417.069,22.409 C416.834999,23.1110035 416.499002,23.7439972 416.061,24.308 C415.622998,24.8720028 415.083003,25.3279983 414.441,25.676 C413.798997,26.0240017 413.070004,26.198 412.254,26.198 C411.977999,26.198 411.687002,26.1740002 411.381,26.126 C411.074998,26.0779998 410.787001,25.9910006 410.517,25.865 C410.246999,25.7389994 410.007001,25.571001 409.797,25.361 C409.586999,25.150999 409.44,24.8900016 409.356,24.578 L409.32,24.578 L408.33,29.546 L406.836,29.546 L409.536,16.694 Z M415.89,20.294 C415.89,19.5379962 415.701002,18.9380022 415.323,18.494 C414.944998,18.0499978 414.336004,17.828 413.496,17.828 C412.919997,17.828 412.404002,17.9779985 411.948,18.278 C411.491998,18.5780015 411.111002,18.9559977 410.805,19.412 C410.498998,19.8680023 410.265001,20.3659973 410.103,20.906 C409.940999,21.4460027 409.86,21.9619975 409.86,22.454 C409.86,23.1500035 410.060998,23.7259977 410.463,24.182 C410.865002,24.6380023 411.443996,24.866 412.2,24.866 C412.812003,24.866 413.345998,24.7250014 413.802,24.443 C414.258002,24.1609986 414.641998,23.7980022 414.954,23.354 C415.266002,22.9099978 415.499999,22.4180027 415.656,21.878 C415.812001,21.3379973 415.89,20.8100026 415.89,20.294 Z M420.138,21.806 C420.102,22.0700013 420.084,22.3399986 420.084,22.616 C420.084,22.9760018 420.149999,23.2969986 420.282,23.579 C420.414001,23.8610014 420.593999,24.0949991 420.822,24.281 C421.050001,24.4670009 421.307999,24.6109995 421.596,24.713 C421.884001,24.8150005 422.183998,24.866 422.496,24.866 C423.180003,24.866 423.743998,24.7130015 424.188,24.407 C424.632002,24.1009985 424.961999,23.6600029 425.178,23.084 L426.708,23.084 C426.587999,23.6000026 426.396001,24.052998 426.132,24.443 C425.867999,24.8330019 425.550002,25.1569987 425.178,25.415 C424.805998,25.6730013 424.392002,25.8679993 423.936,26 C423.479998,26.1320007 423.000003,26.198 422.496,26.198 C421.727996,26.198 421.089003,26.0810012 420.579,25.847 C420.068997,25.6129988 419.664001,25.3130018 419.364,24.947 C419.063998,24.5809982 418.854001,24.1790022 418.734,23.741 C418.613999,23.3029978 418.554,22.880002 418.554,22.472 C418.554,21.5839956 418.682999,20.7710037 418.941,20.033 C419.199001,19.2949963 419.546998,18.6620026 419.985,18.134 C420.423002,17.6059974 420.932997,17.1980014 421.515,16.91 C422.097003,16.6219986 422.705997,16.478 423.342,16.478 C424.710007,16.478 425.708997,16.8379964 426.339,17.558 C426.969003,18.2780036 427.284,19.2919935 427.284,20.6 C427.284,20.8400012 427.266,21.0679989 427.23,21.284 C427.194,21.5000011 427.164,21.6739993 427.14,21.806 L420.138,21.806 Z M425.754,20.456 C425.778,20.1319984 425.757,19.8110016 425.691,19.493 C425.625,19.1749984 425.505001,18.8930012 425.331,18.647 C425.156999,18.4009988 424.926001,18.2030007 424.638,18.053 C424.349999,17.9029993 423.996002,17.828 423.576,17.828 C423.131998,17.828 422.733002,17.8969993 422.379,18.035 C422.024998,18.1730007 421.716001,18.3619988 421.452,18.602 C421.187999,18.8420012 420.966001,19.1209984 420.786,19.439 C420.605999,19.7570016 420.462001,20.0959982 420.354,20.456 L425.754,20.456 Z M428.994,19.502 C429.066,18.9859974 429.224999,18.5390019 429.471,18.161 C429.717001,17.7829981 430.019998,17.4680013 430.38,17.216 C430.740002,16.9639987 431.147998,16.7780006 431.604,16.658 C432.060002,16.5379994 432.533998,16.478 433.026,16.478 C433.482002,16.478 433.913998,16.5139996 434.322,16.586 C434.730002,16.6580004 435.089998,16.7839991 435.402,16.964 C435.714002,17.1440009 435.962999,17.3869985 436.149,17.693 C436.335001,17.9990015 436.428,18.3859977 436.428,18.854 C436.428,19.1180013 436.395,19.4029985 436.329,19.709 C436.263,20.0150015 436.2,20.2939987 436.14,20.546 L435.546,23.084 C435.51,23.276001 435.459,23.4919988 435.393,23.732 C435.327,23.9720012 435.294,24.1999989 435.294,24.416 C435.294,24.6320011 435.336,24.7819996 435.42,24.866 C435.504,24.9500004 435.611999,24.992 435.744,24.992 C435.816,24.992 435.897,24.9770002 435.987,24.947 L436.23,24.866 L435.996,26 C435.875999,26.0480002 435.723001,26.0929998 435.537,26.135 C435.350999,26.1770002 435.192001,26.198 435.06,26.198 C434.639998,26.198 434.322001,26.0840011 434.106,25.856 C433.889999,25.6279989 433.806,25.310002 433.854,24.902 L433.818,24.866 C433.493998,25.2980022 433.092002,25.6279989 432.612,25.856 C432.131998,26.0840011 431.496004,26.198 430.704,26.198 C430.307998,26.198 429.939002,26.1530005 429.597,26.063 C429.254998,25.9729996 428.958001,25.8230011 428.706,25.613 C428.453999,25.402999 428.253001,25.1330017 428.103,24.803 C427.952999,24.4729984 427.878,24.0680024 427.878,23.588 C427.878,22.9039966 428.024999,22.3700019 428.319,21.986 C428.613001,21.6019981 428.987998,21.311001 429.444,21.113 C429.900002,20.914999 430.403997,20.7800004 430.956,20.708 C431.508003,20.6359996 432.041997,20.5760002 432.558,20.528 C432.966002,20.4919998 433.316999,20.4530002 433.611,20.411 C433.905001,20.3689998 434.147999,20.3000005 434.34,20.204 C434.532001,20.1079995 434.673,19.9700009 434.763,19.79 C434.853,19.6099991 434.898,19.3640016 434.898,19.052 C434.898,18.7999987 434.838001,18.5960008 434.718,18.44 C434.597999,18.2839992 434.448001,18.1610004 434.268,18.071 C434.087999,17.9809995 433.887001,17.9180002 433.665,17.882 C433.442999,17.8459998 433.230001,17.828 433.026,17.828 C432.737999,17.828 432.453001,17.8579997 432.171,17.918 C431.888999,17.9780003 431.634001,18.0769993 431.406,18.215 C431.177999,18.3530007 430.986001,18.5269989 430.83,18.737 C430.673999,18.947001 430.572,19.2019985 430.524,19.502 L428.994,19.502 Z M429.39,23.57 C429.39,24.0020022 429.560998,24.3259989 429.903,24.542 C430.245002,24.7580011 430.631998,24.866 431.064,24.866 C432.276006,24.866 433.145997,24.4580041 433.674,23.642 C433.926001,23.2939983 434.097,22.916002 434.187,22.508 C434.277,22.099998 434.375999,21.6800022 434.484,21.248 L434.448,21.248 C434.231999,21.4040008 433.959002,21.5149997 433.629,21.581 C433.298998,21.6470003 432.948002,21.6979998 432.576,21.734 C432.203998,21.7700002 431.829002,21.8149997 431.451,21.869 C431.072998,21.9230003 430.734001,22.0099994 430.434,22.13 C430.133998,22.2500006 429.888001,22.4209989 429.696,22.643 C429.503999,22.8650011 429.402,23.173998 429.39,23.57 Z M441.36,16.694 L443.214,16.694 L442.926,18.044 L441.072,18.044 L439.92,23.516 C439.908,23.6240005 439.896,23.7259995 439.884,23.822 C439.872,23.9180005 439.866,24.0199995 439.866,24.128 C439.866,24.3680012 439.958999,24.5329995 440.145,24.623 C440.331001,24.7130004 440.543999,24.758 440.784,24.758 C440.940001,24.758 441.089999,24.7430002 441.234,24.713 C441.378001,24.6829999 441.521999,24.6440002 441.666,24.596 L441.396,26 C441.215999,26.0240001 441.036001,26.0449999 440.856,26.063 C440.675999,26.0810001 440.496001,26.09 440.316,26.09 C440.027999,26.09 439.758001,26.0690002 439.506,26.027 C439.253999,25.9849998 439.035001,25.9070006 438.849,25.793 C438.662999,25.6789994 438.513001,25.526001 438.399,25.334 C438.284999,25.141999 438.228,24.8960015 438.228,24.596 C438.228,24.4639993 438.237,24.3380006 438.255,24.218 C438.273,24.0979994 438.294,23.9660007 438.318,23.822 L439.542,18.044 L437.976,18.044 L438.264,16.694 L439.83,16.694 L440.406,13.94 L441.936,13.94 L441.36,16.694 Z M443.754,24.002 L445.752,24.002 L445.32,26 L443.322,26 L443.754,24.002 Z" id="shop.-save.-love.-re" fill="#202020"></path>
                </g>
            </g>
            <g id="btn-green" transform="translate(504.000000, 0.000000)">
                <g id="Group-3">
                    <rect id="Rectangle" fill="#FFFFFF" x="0" y="0" width="103" height="34" rx="3"></rect>
                    <path d="M22.901,19.718 C22.9103334,19.9793346 22.9709994,20.2009991 23.083,20.383 C23.1950006,20.5650009 23.3419991,20.7096661 23.524,20.817 C23.7060009,20.9243339 23.9113322,21.0013331 24.14,21.048 C24.3686678,21.0946669 24.6043321,21.118 24.847,21.118 C25.0336676,21.118 25.2296656,21.1040001 25.435,21.076 C25.6403344,21.0479999 25.8293325,20.996667 26.002,20.922 C26.1746675,20.847333 26.3169994,20.7376674 26.429,20.593 C26.5410006,20.4483326 26.597,20.2640011 26.597,20.04 C26.597,19.7319985 26.4803345,19.4986675 26.247,19.34 C26.0136655,19.1813325 25.7220017,19.0530005 25.372,18.955 C25.0219982,18.8569995 24.6416687,18.7683337 24.231,18.689 C23.8203313,18.6096663 23.4400017,18.4976674 23.09,18.353 C22.7399982,18.2083326 22.4483345,18.0053346 22.215,17.744 C21.9816655,17.4826654 21.865,17.118669 21.865,16.652 C21.865,16.2879982 21.9466658,15.9753346 22.11,15.714 C22.2733341,15.4526654 22.483332,15.2403341 22.74,15.077 C22.9966679,14.9136659 23.2859984,14.7923337 23.608,14.713 C23.9300016,14.6336663 24.2496651,14.594 24.567,14.594 C24.9776687,14.594 25.3556649,14.6289997 25.701,14.699 C26.0463351,14.7690004 26.3519987,14.8903325 26.618,15.063 C26.8840013,15.2356675 27.0963325,15.4689985 27.255,15.763 C27.4136675,16.0570015 27.5069999,16.4233311 27.535,16.862 L26.345,16.862 C26.3263332,16.6286655 26.2656672,16.4350008 26.163,16.281 C26.0603328,16.1269992 25.9296675,16.0033338 25.771,15.91 C25.6123325,15.8166662 25.4373343,15.7490002 25.246,15.707 C25.0546657,15.6649998 24.861001,15.644 24.665,15.644 C24.4876658,15.644 24.3080009,15.6579999 24.126,15.686 C23.9439991,15.7140001 23.7783341,15.7629997 23.629,15.833 C23.4796659,15.9030003 23.3583338,15.9963327 23.265,16.113 C23.1716662,16.2296672 23.125,16.3813324 23.125,16.568 C23.125,16.7733344 23.1973326,16.943666 23.342,17.079 C23.4866674,17.214334 23.6709989,17.3263329 23.895,17.415 C24.1190011,17.5036671 24.3709986,17.578333 24.651,17.639 C24.9310014,17.699667 25.2109986,17.7626663 25.491,17.828 C25.7896682,17.8933337 26.0813319,17.9726662 26.366,18.066 C26.6506681,18.1593338 26.9026656,18.2829992 27.122,18.437 C27.3413344,18.5910008 27.518666,18.7846655 27.654,19.018 C27.789334,19.2513345 27.857,19.5406649 27.857,19.886 C27.857,20.3246689 27.7660009,20.6886652 27.584,20.978 C27.4019991,21.2673348 27.1640015,21.5006658 26.87,21.678 C26.5759985,21.8553342 26.2446685,21.9789996 25.876,22.049 C25.5073315,22.1190004 25.1410018,22.154 24.777,22.154 C24.3756647,22.154 23.9930018,22.1120004 23.629,22.028 C23.2649982,21.9439996 22.9430014,21.8063343 22.663,21.615 C22.3829986,21.4236657 22.1590008,21.1716682 21.991,20.859 C21.8229992,20.5463318 21.7296668,20.1660022 21.711,19.718 L22.901,19.718 Z M29.173,12.004 L30.363,12.004 L30.363,15.826 L30.391,15.826 C30.4843338,15.6019989 30.6149992,15.4130008 30.783,15.259 C30.9510008,15.1049992 31.1399989,14.9790005 31.35,14.881 C31.560001,14.7829995 31.7793322,14.7106669 32.008,14.664 C32.2366678,14.6173331 32.4583323,14.594 32.673,14.594 C33.1490024,14.594 33.5456651,14.6593327 33.863,14.79 C34.1803349,14.9206673 34.436999,15.1026655 34.633,15.336 C34.829001,15.5693345 34.9666663,15.8469984 35.046,16.169 C35.1253337,16.4910016 35.165,16.847998 35.165,17.24 L35.165,22 L33.975,22 L33.975,17.1 C33.975,16.6519978 33.8443346,16.2973346 33.583,16.036 C33.3216654,15.7746654 32.9623356,15.644 32.505,15.644 C32.1409982,15.644 31.8260013,15.6999994 31.56,15.812 C31.2939987,15.9240006 31.0723342,16.0826656 30.895,16.288 C30.7176658,16.4933344 30.5846671,16.7336653 30.496,17.009 C30.4073329,17.2843347 30.363,17.5853317 30.363,17.912 L30.363,22 L29.173,22 L29.173,12.004 Z M37.825,18.388 C37.825,18.8266689 37.8833327,19.2163316 38,19.557 C38.1166672,19.8976684 38.2776656,20.1823322 38.483,20.411 C38.6883344,20.6396678 38.9286653,20.8146661 39.204,20.936 C39.4793347,21.0573339 39.7709985,21.118 40.079,21.118 C40.3870015,21.118 40.6786653,21.0573339 40.954,20.936 C41.2293347,20.8146661 41.4696656,20.6396678 41.675,20.411 C41.8803344,20.1823322 42.0413327,19.8976684 42.158,19.557 C42.2746672,19.2163316 42.333,18.8266689 42.333,18.388 C42.333,17.9493311 42.2746672,17.5596684 42.158,17.219 C42.0413327,16.8783316 41.8803344,16.5913345 41.675,16.358 C41.4696656,16.1246655 41.2293347,15.9473339 40.954,15.826 C40.6786653,15.7046661 40.3870015,15.644 40.079,15.644 C39.7709985,15.644 39.4793347,15.7046661 39.204,15.826 C38.9286653,15.9473339 38.6883344,16.1246655 38.483,16.358 C38.2776656,16.5913345 38.1166672,16.8783316 38,17.219 C37.8833327,17.5596684 37.825,17.9493311 37.825,18.388 Z M36.565,18.388 C36.565,17.8559973 36.6396659,17.3590023 36.789,16.897 C36.9383341,16.4349977 37.1623318,16.0336684 37.461,15.693 C37.7596682,15.3523316 38.1283311,15.084001 38.567,14.888 C39.0056689,14.691999 39.5096638,14.594 40.079,14.594 C40.6576696,14.594 41.1639978,14.691999 41.598,14.888 C42.0320022,15.084001 42.3983318,15.3523316 42.697,15.693 C42.9956682,16.0336684 43.2196659,16.4349977 43.369,16.897 C43.5183341,17.3590023 43.593,17.8559973 43.593,18.388 C43.593,18.9200027 43.5183341,19.4146644 43.369,19.872 C43.2196659,20.3293356 42.9956682,20.7283316 42.697,21.069 C42.3983318,21.4096684 42.0320022,21.6756657 41.598,21.867 C41.1639978,22.0583343 40.6576696,22.154 40.079,22.154 C39.5096638,22.154 39.0056689,22.0583343 38.567,21.867 C38.1283311,21.6756657 37.7596682,21.4096684 37.461,21.069 C37.1623318,20.7283316 36.9383341,20.3293356 36.789,19.872 C36.6396659,19.4146644 36.565,18.9200027 36.565,18.388 Z M45.035,14.762 L46.225,14.762 L46.225,15.742 L46.253,15.742 C46.449001,15.3406647 46.7569979,15.0490009 47.177,14.867 C47.5970021,14.6849991 48.0589975,14.594 48.563,14.594 C49.1230028,14.594 49.6106646,14.6966656 50.026,14.902 C50.4413354,15.1073344 50.7866653,15.3849983 51.062,15.735 C51.3373347,16.0850017 51.5449993,16.4886644 51.685,16.946 C51.8250007,17.4033356 51.895,17.8886641 51.895,18.402 C51.895,18.9153359 51.827334,19.4006644 51.692,19.858 C51.556666,20.3153356 51.3513347,20.7143316 51.076,21.055 C50.8006653,21.3956684 50.4553354,21.663999 50.04,21.86 C49.6246646,22.056001 49.1416694,22.154 48.591,22.154 C48.4136658,22.154 48.2153344,22.1353335 47.996,22.098 C47.7766656,22.0606665 47.5596677,22.0000004 47.345,21.916 C47.1303323,21.8319996 46.9273343,21.7176674 46.736,21.573 C46.5446657,21.4283326 46.3836673,21.2486677 46.253,21.034 L46.225,21.034 L46.225,24.758 L45.035,24.758 L45.035,14.762 Z M50.635,18.318 C50.635,17.9819983 50.5906671,17.6530016 50.502,17.331 C50.4133329,17.0089984 50.2780009,16.7220013 50.096,16.47 C49.9139991,16.2179987 49.6806681,16.0173341 49.396,15.868 C49.1113319,15.7186659 48.7776686,15.644 48.395,15.644 C47.9936647,15.644 47.6530014,15.7233325 47.373,15.882 C47.0929986,16.0406675 46.8643342,16.2483321 46.687,16.505 C46.5096658,16.7616679 46.3813337,17.0533317 46.302,17.38 C46.2226663,17.7066683 46.183,18.0379983 46.183,18.374 C46.183,18.7286684 46.2249996,19.071665 46.309,19.403 C46.3930004,19.734335 46.5259991,20.0259987 46.708,20.278 C46.8900009,20.5300013 47.1256652,20.7329992 47.415,20.887 C47.7043348,21.0410008 48.0543313,21.118 48.465,21.118 C48.8756687,21.118 49.2186653,21.0386675 49.494,20.88 C49.7693347,20.7213325 49.9909992,20.5113346 50.159,20.25 C50.3270008,19.9886654 50.448333,19.6900017 50.523,19.354 C50.597667,19.0179983 50.635,18.6726684 50.635,18.318 Z M57.187,14.762 L58.307,14.762 L58.307,15.91 L58.335,15.91 C58.8296691,15.0326623 59.6136613,14.594 60.687,14.594 C61.1630024,14.594 61.5596651,14.6593327 61.877,14.79 C62.1943349,14.9206673 62.450999,15.1026655 62.647,15.336 C62.843001,15.5693345 62.9806663,15.8469984 63.06,16.169 C63.1393337,16.4910016 63.179,16.847998 63.179,17.24 L63.179,22 L61.989,22 L61.989,17.1 C61.989,16.6519978 61.8583346,16.2973346 61.597,16.036 C61.3356654,15.7746654 60.9763356,15.644 60.519,15.644 C60.1549982,15.644 59.8400013,15.6999994 59.574,15.812 C59.3079987,15.9240006 59.0863342,16.0826656 58.909,16.288 C58.7316658,16.4933344 58.5986671,16.7336653 58.51,17.009 C58.4213329,17.2843347 58.377,17.5853317 58.377,17.912 L58.377,22 L57.187,22 L57.187,14.762 Z M65.839,18.388 C65.839,18.8266689 65.8973328,19.2163316 66.014,19.557 C66.1306672,19.8976684 66.2916656,20.1823322 66.497,20.411 C66.7023344,20.6396678 66.9426653,20.8146661 67.218,20.936 C67.4933347,21.0573339 67.7849985,21.118 68.093,21.118 C68.4010015,21.118 68.6926653,21.0573339 68.968,20.936 C69.2433347,20.8146661 69.4836656,20.6396678 69.689,20.411 C69.8943344,20.1823322 70.0553327,19.8976684 70.172,19.557 C70.2886672,19.2163316 70.347,18.8266689 70.347,18.388 C70.347,17.9493311 70.2886672,17.5596684 70.172,17.219 C70.0553327,16.8783316 69.8943344,16.5913345 69.689,16.358 C69.4836656,16.1246655 69.2433347,15.9473339 68.968,15.826 C68.6926653,15.7046661 68.4010015,15.644 68.093,15.644 C67.7849985,15.644 67.4933347,15.7046661 67.218,15.826 C66.9426653,15.9473339 66.7023344,16.1246655 66.497,16.358 C66.2916656,16.5913345 66.1306672,16.8783316 66.014,17.219 C65.8973328,17.5596684 65.839,17.9493311 65.839,18.388 Z M64.579,18.388 C64.579,17.8559973 64.6536659,17.3590023 64.803,16.897 C64.9523341,16.4349977 65.1763318,16.0336684 65.475,15.693 C65.7736682,15.3523316 66.1423311,15.084001 66.581,14.888 C67.0196689,14.691999 67.5236638,14.594 68.093,14.594 C68.6716696,14.594 69.1779978,14.691999 69.612,14.888 C70.0460022,15.084001 70.4123318,15.3523316 70.711,15.693 C71.0096682,16.0336684 71.2336659,16.4349977 71.383,16.897 C71.5323341,17.3590023 71.607,17.8559973 71.607,18.388 C71.607,18.9200027 71.5323341,19.4146644 71.383,19.872 C71.2336659,20.3293356 71.0096682,20.7283316 70.711,21.069 C70.4123318,21.4096684 70.0460022,21.6756657 69.612,21.867 C69.1779978,22.0583343 68.6716696,22.154 68.093,22.154 C67.5236638,22.154 67.0196689,22.0583343 66.581,21.867 C66.1423311,21.6756657 65.7736682,21.4096684 65.475,21.069 C65.1763318,20.7283316 64.9523341,20.3293356 64.803,19.872 C64.6536659,19.4146644 64.579,18.9200027 64.579,18.388 Z M80.175,22 L78.915,22 L77.445,16.246 L77.417,16.246 L75.961,22 L74.673,22 L72.349,14.762 L73.665,14.762 L75.303,20.684 L75.331,20.684 L76.787,14.762 L78.089,14.762 L79.601,20.684 L79.629,20.684 L81.253,14.762 L82.485,14.762 L80.175,22 Z" id="shop-now" fill="#000000"></path>
                </g>
            </g>
        </g>
    </g>
</svg>